<svg xmlns="http://www.w3.org/2000/svg" width="900" height="300" viewBox="0 0 900 300">
  <rect x="50" y="50" width="800" height="200" fill="none" stroke="#cccccc"/>
  <polyline fill="none" stroke="#2ca02c" stroke-width="2" points="50.00,250.00 90.00,250.00 130.00,250.00 170.00,250.00 210.00,250.00 250.00,250.00 290.00,250.00 330.00,250.00 370.00,250.00 410.00,250.00 450.00,250.00 490.00,250.00 530.00,250.00 570.00,250.00 610.00,250.00 650.00,250.00 690.00,250.00 730.00,250.00 770.00,178.21 810.00,181.28 850.00,50.00"/>
  <circle cx="50.00" cy="250.00" r="4" fill="#2ca02c"/><circle cx="90.00" cy="250.00" r="4" fill="#2ca02c"/><circle cx="130.00" cy="250.00" r="4" fill="#2ca02c"/><circle cx="170.00" cy="250.00" r="4" fill="#2ca02c"/><circle cx="210.00" cy="250.00" r="4" fill="#2ca02c"/><circle cx="250.00" cy="250.00" r="4" fill="#2ca02c"/><circle cx="290.00" cy="250.00" r="4" fill="#2ca02c"/><circle cx="330.00" cy="250.00" r="4" fill="#2ca02c"/><circle cx="370.00" cy="250.00" r="4" fill="#2ca02c"/><circle cx="410.00" cy="250.00" r="4" fill="#2ca02c"/><circle cx="450.00" cy="250.00" r="4" fill="#2ca02c"/><circle cx="490.00" cy="250.00" r="4" fill="#2ca02c"/><circle cx="530.00" cy="250.00" r="4" fill="#2ca02c"/><circle cx="570.00" cy="250.00" r="4" fill="#2ca02c"/><circle cx="610.00" cy="250.00" r="4" fill="#2ca02c"/><circle cx="650.00" cy="250.00" r="4" fill="#2ca02c"/><circle cx="690.00" cy="250.00" r="4" fill="#2ca02c"/><circle cx="730.00" cy="250.00" r="4" fill="#2ca02c"/><circle cx="770.00" cy="178.21" r="4" fill="#2ca02c"/><circle cx="810.00" cy="181.28" r="4" fill="#2ca02c"/><circle cx="850.00" cy="50.00" r="4" fill="#2ca02c"/>
  <text x="50" y="30" font-size="18">Accumulator Evolution (final 195)</text>
</svg>
