<svg xmlns="http://www.w3.org/2000/svg" width="900" height="220" viewBox="0 0 900 220">
  <rect x="40" y="40" width="820" height="140" fill="none" stroke="#cccccc"/>
  <rect x="40.00" y="40" width="41.00" height="140" fill="#ff7f0e" opacity="0.4" stroke="#444" stroke-width="0.5"/><rect x="81.00" y="40" width="41.00" height="140" fill="#2ca02c" opacity="0.4" stroke="#444" stroke-width="0.5"/><rect x="122.00" y="40" width="41.00" height="140" fill="#ff7f0e" opacity="0.4" stroke="#444" stroke-width="0.5"/><rect x="163.00" y="40" width="41.00" height="140" fill="#2ca02c" opacity="0.4" stroke="#444" stroke-width="0.5"/><rect x="204.00" y="40" width="41.00" height="140" fill="#d62728" opacity="0.4" stroke="#444" stroke-width="0.5"/><rect x="245.00" y="40" width="41.00" height="140" fill="#1f77b4" opacity="0.4" stroke="#444" stroke-width="0.5"/><rect x="286.00" y="40" width="41.00" height="140" fill="#7f7f7f" opacity="0.4" stroke="#444" stroke-width="0.5"/><rect x="327.00" y="40" width="41.00" height="140" fill="#ff7f0e" opacity="0.4" stroke="#444" stroke-width="0.5"/><rect x="368.00" y="40" width="41.00" height="140" fill="#2ca02c" opacity="0.4" stroke="#444" stroke-width="0.5"/><rect x="409.00" y="40" width="41.00" height="140" fill="#ff7f0e" opacity="0.4" stroke="#444" stroke-width="0.5"/><rect x="450.00" y="40" width="41.00" height="140" fill="#2ca02c" opacity="0.4" stroke="#444" stroke-width="0.5"/><rect x="491.00" y="40" width="41.00" height="140" fill="#9467bd" opacity="0.4" stroke="#444" stroke-width="0.5"/><rect x="532.00" y="40" width="41.00" height="140" fill="#ff7f0e" opacity="0.4" stroke="#444" stroke-width="0.5"/><rect x="573.00" y="40" width="41.00" height="140" fill="#8c564b" opacity="0.4" stroke="#444" stroke-width="0.5"/><rect x="614.00" y="40" width="41.00" height="140" fill="#ff7f0e" opacity="0.4" stroke="#444" stroke-width="0.5"/><rect x="655.00" y="40" width="41.00" height="140" fill="#2ca02c" opacity="0.4" stroke="#444" stroke-width="0.5"/><rect x="696.00" y="40" width="41.00" height="140" fill="#8c564b" opacity="0.4" stroke="#444" stroke-width="0.5"/><rect x="737.00" y="40" width="41.00" height="140" fill="#e377c2" opacity="0.4" stroke="#444" stroke-width="0.5"/><rect x="778.00" y="40" width="41.00" height="140" fill="#e377c2" opacity="0.4" stroke="#444" stroke-width="0.5"/><rect x="819.00" y="40" width="41.00" height="140" fill="#e377c2" opacity="0.4" stroke="#444" stroke-width="0.5"/><rect x="860.00" y="40" width="41.00" height="140" fill="#1f77b4" opacity="0.4" stroke="#444" stroke-width="0.5"/>
  <text x="60.50" y="110.00" font-size="14" text-anchor="middle" fill="#111">LOADI</text><text x="101.50" y="110.00" font-size="14" text-anchor="middle" fill="#111">LOADHI</text><text x="142.50" y="110.00" font-size="14" text-anchor="middle" fill="#111">LOADI</text><text x="183.50" y="110.00" font-size="14" text-anchor="middle" fill="#111">LOADHI</text><text x="224.50" y="110.00" font-size="14" text-anchor="middle" fill="#111">MAC4</text><text x="265.50" y="110.00" font-size="14" text-anchor="middle" fill="#111">ADD</text><text x="306.50" y="110.00" font-size="14" text-anchor="middle" fill="#111">XOR</text><text x="347.50" y="110.00" font-size="14" text-anchor="middle" fill="#111">LOADI</text><text x="388.50" y="110.00" font-size="14" text-anchor="middle" fill="#111">LOADHI</text><text x="429.50" y="110.00" font-size="14" text-anchor="middle" fill="#111">LOADI</text><text x="470.50" y="110.00" font-size="14" text-anchor="middle" fill="#111">LOADHI</text><text x="511.50" y="110.00" font-size="14" text-anchor="middle" fill="#111">CONV3</text><text x="552.50" y="110.00" font-size="14" text-anchor="middle" fill="#111">LOADI</text><text x="593.50" y="110.00" font-size="14" text-anchor="middle" fill="#111">SIGMOID</text><text x="634.50" y="110.00" font-size="14" text-anchor="middle" fill="#111">LOADI</text><text x="675.50" y="110.00" font-size="14" text-anchor="middle" fill="#111">LOADHI</text><text x="716.50" y="110.00" font-size="14" text-anchor="middle" fill="#111">SIGMOID</text><text x="757.50" y="110.00" font-size="14" text-anchor="middle" fill="#111">ACC</text><text x="798.50" y="110.00" font-size="14" text-anchor="middle" fill="#111">ACC</text><text x="839.50" y="110.00" font-size="14" text-anchor="middle" fill="#111">ACC</text><text x="880.50" y="110.00" font-size="14" text-anchor="middle" fill="#111">ADD</text>
  <text x="450.0" y="210" font-size="16" text-anchor="middle">Opcode Timeline</text>
</svg>
