<svg xmlns="http://www.w3.org/2000/svg" width="900" height="540" viewBox="0 0 900 540">
<g>
  <rect x="40" y="40" width="820" height="100" fill="none" stroke="#cccccc" stroke-width="1"/>
  <polyline fill="none" stroke="#1f77b4" stroke-width="2" points="40.00,140.00 81.00,135.00 122.00,130.00 163.00,125.00 204.00,120.00 245.00,115.00 286.00,110.00 327.00,105.00 368.00,100.00 409.00,95.00 450.00,90.00 491.00,85.00 532.00,80.00 573.00,75.00 614.00,70.00 655.00,65.00 696.00,60.00 737.00,55.00 778.00,50.00 819.00,45.00 860.00,40.00"/>
  <text x="40" y="20" font-size="16" fill="#333">Program Counter (range 0..80)</text>
</g>
<g>
  <rect x="40" y="220" width="820" height="100" fill="none" stroke="#cccccc" stroke-width="1"/>
  <polyline fill="none" stroke="#ff7f0e" stroke-width="2" points="40.00,320.00 81.00,320.00 122.00,320.00 163.00,320.00 204.00,320.00 245.00,320.00 286.00,220.00 327.00,320.00 368.00,320.00 409.00,320.00 450.00,320.00 491.00,320.00 532.00,320.00 573.00,320.00 614.00,320.00 655.00,320.00 696.00,320.00 737.00,320.00 778.00,320.00 819.00,320.00 860.00,320.00"/>
  <text x="40" y="200" font-size="16" fill="#333">ALU Result (range -3..201589764)</text>
</g>
<g>
  <rect x="40" y="400" width="820" height="100" fill="none" stroke="#cccccc" stroke-width="1"/>
  <polyline fill="none" stroke="#2ca02c" stroke-width="2" points="40.00,500.00 81.00,500.00 122.00,500.00 163.00,500.00 204.00,500.00 245.00,500.00 286.00,500.00 327.00,500.00 368.00,500.00 409.00,500.00 450.00,500.00 491.00,500.00 532.00,500.00 573.00,500.00 614.00,500.00 655.00,500.00 696.00,500.00 737.00,500.00 778.00,464.10 819.00,465.64 860.00,400.00"/>
  <text x="40" y="380" font-size="16" fill="#333">Accumulator (range 0..195)</text>
</g>
</svg>
