<svg xmlns="http://www.w3.org/2000/svg" width="1100" height="360" viewBox="0 0 1100 360">
  <rect x="70" y="70" width="960" height="220" fill="#fafafa" stroke="#cccccc"/>
  <polyline fill="none" stroke="#2ca02c" stroke-width="4" points="70.00,290.00 118.00,290.00 166.00,290.00 214.00,290.00 262.00,290.00 310.00,290.00 358.00,290.00 406.00,290.00 454.00,290.00 502.00,290.00 550.00,290.00 598.00,290.00 646.00,290.00 694.00,290.00 742.00,290.00 790.00,290.00 838.00,290.00 886.00,290.00 934.00,211.03 982.00,214.41 1030.00,70.00"/>
  <circle cx="70.00" cy="290.00" r="3" fill="#8ad18a"/><circle cx="118.00" cy="290.00" r="3" fill="#8ad18a"/><circle cx="166.00" cy="290.00" r="3" fill="#8ad18a"/><circle cx="214.00" cy="290.00" r="3" fill="#8ad18a"/><circle cx="262.00" cy="290.00" r="3" fill="#8ad18a"/><circle cx="310.00" cy="290.00" r="3" fill="#8ad18a"/><circle cx="358.00" cy="290.00" r="3" fill="#8ad18a"/><circle cx="406.00" cy="290.00" r="3" fill="#8ad18a"/><circle cx="454.00" cy="290.00" r="3" fill="#8ad18a"/><circle cx="502.00" cy="290.00" r="3" fill="#8ad18a"/><circle cx="550.00" cy="290.00" r="3" fill="#8ad18a"/><circle cx="598.00" cy="290.00" r="3" fill="#8ad18a"/><circle cx="646.00" cy="290.00" r="3" fill="#8ad18a"/><circle cx="694.00" cy="290.00" r="3" fill="#8ad18a"/><circle cx="742.00" cy="290.00" r="3" fill="#8ad18a"/><circle cx="790.00" cy="290.00" r="3" fill="#8ad18a"/><circle cx="838.00" cy="290.00" r="3" fill="#8ad18a"/><circle cx="886.00" cy="290.00" r="6" fill="#2ca02c" stroke="#ffffff" stroke-width="2"/><circle cx="934.00" cy="211.03" r="6" fill="#2ca02c" stroke="#ffffff" stroke-width="2"/><circle cx="982.00" cy="214.41" r="6" fill="#2ca02c" stroke="#ffffff" stroke-width="2"/><circle cx="1030.00" cy="70.00" r="3" fill="#8ad18a"/>
  <text x="886.00" y="278.00" font-size="12" text-anchor="middle" fill="#2e6b2e">+=70</text><text x="934.00" y="199.03" font-size="12" text-anchor="middle" fill="#2e6b2e">+=-3</text><text x="982.00" y="202.41" font-size="12" text-anchor="middle" fill="#2e6b2e">+=128</text>
  <text x="70" y="45" font-size="20">Accumulator Evolution (final 195)</text>
</svg>
