<svg xmlns="http://www.w3.org/2000/svg" width="1100" height="260" viewBox="0 0 1100 260">
  <rect x="60" y="60" width="980" height="140" fill="#fafafa" stroke="#cccccc"/>
  <rect x="60.00" y="60" width="49.00" height="140" fill="#ff7f0e" opacity="0.4" stroke="#444" stroke-width="0.5"/><rect x="109.00" y="60" width="49.00" height="140" fill="#2ca02c" opacity="0.4" stroke="#444" stroke-width="0.5"/><rect x="158.00" y="60" width="49.00" height="140" fill="#ff7f0e" opacity="0.4" stroke="#444" stroke-width="0.5"/><rect x="207.00" y="60" width="49.00" height="140" fill="#2ca02c" opacity="0.4" stroke="#444" stroke-width="0.5"/><rect x="256.00" y="60" width="49.00" height="140" fill="#d62728" opacity="0.4" stroke="#444" stroke-width="0.5"/><rect x="305.00" y="60" width="49.00" height="140" fill="#1f77b4" opacity="0.4" stroke="#444" stroke-width="0.5"/><rect x="354.00" y="60" width="49.00" height="140" fill="#7f7f7f" opacity="0.4" stroke="#444" stroke-width="0.5"/><rect x="403.00" y="60" width="49.00" height="140" fill="#ff7f0e" opacity="0.4" stroke="#444" stroke-width="0.5"/><rect x="452.00" y="60" width="49.00" height="140" fill="#2ca02c" opacity="0.4" stroke="#444" stroke-width="0.5"/><rect x="501.00" y="60" width="49.00" height="140" fill="#ff7f0e" opacity="0.4" stroke="#444" stroke-width="0.5"/><rect x="550.00" y="60" width="49.00" height="140" fill="#2ca02c" opacity="0.4" stroke="#444" stroke-width="0.5"/><rect x="599.00" y="60" width="49.00" height="140" fill="#9467bd" opacity="0.4" stroke="#444" stroke-width="0.5"/><rect x="648.00" y="60" width="49.00" height="140" fill="#ff7f0e" opacity="0.4" stroke="#444" stroke-width="0.5"/><rect x="697.00" y="60" width="49.00" height="140" fill="#8c564b" opacity="0.4" stroke="#444" stroke-width="0.5"/><rect x="746.00" y="60" width="49.00" height="140" fill="#ff7f0e" opacity="0.4" stroke="#444" stroke-width="0.5"/><rect x="795.00" y="60" width="49.00" height="140" fill="#2ca02c" opacity="0.4" stroke="#444" stroke-width="0.5"/><rect x="844.00" y="60" width="49.00" height="140" fill="#8c564b" opacity="0.4" stroke="#444" stroke-width="0.5"/><rect x="893.00" y="60" width="49.00" height="140" fill="#e377c2" opacity="0.4" stroke="#444" stroke-width="0.5"/><rect x="942.00" y="60" width="49.00" height="140" fill="#e377c2" opacity="0.4" stroke="#444" stroke-width="0.5"/><rect x="991.00" y="60" width="49.00" height="140" fill="#e377c2" opacity="0.4" stroke="#444" stroke-width="0.5"/><rect x="1040.00" y="60" width="49.00" height="140" fill="#1f77b4" opacity="0.4" stroke="#444" stroke-width="0.5"/>
  <text x="84.50" y="130.00" font-size="14" text-anchor="middle" fill="#111">LOADI</text><text x="133.50" y="130.00" font-size="14" text-anchor="middle" fill="#111">LOADHI</text><text x="182.50" y="130.00" font-size="14" text-anchor="middle" fill="#111">LOADI</text><text x="231.50" y="130.00" font-size="14" text-anchor="middle" fill="#111">LOADHI</text><text x="280.50" y="130.00" font-size="14" text-anchor="middle" fill="#111">MAC4</text><text x="329.50" y="130.00" font-size="14" text-anchor="middle" fill="#111">ADD</text><text x="378.50" y="130.00" font-size="14" text-anchor="middle" fill="#111">XOR</text><text x="427.50" y="130.00" font-size="14" text-anchor="middle" fill="#111">LOADI</text><text x="476.50" y="130.00" font-size="14" text-anchor="middle" fill="#111">LOADHI</text><text x="525.50" y="130.00" font-size="14" text-anchor="middle" fill="#111">LOADI</text><text x="574.50" y="130.00" font-size="14" text-anchor="middle" fill="#111">LOADHI</text><text x="623.50" y="130.00" font-size="14" text-anchor="middle" fill="#111">CONV3</text><text x="672.50" y="130.00" font-size="14" text-anchor="middle" fill="#111">LOADI</text><text x="721.50" y="130.00" font-size="14" text-anchor="middle" fill="#111">SIGMOID</text><text x="770.50" y="130.00" font-size="14" text-anchor="middle" fill="#111">LOADI</text><text x="819.50" y="130.00" font-size="14" text-anchor="middle" fill="#111">LOADHI</text><text x="868.50" y="130.00" font-size="14" text-anchor="middle" fill="#111">SIGMOID</text><text x="917.50" y="130.00" font-size="14" text-anchor="middle" fill="#111">ACC</text><text x="966.50" y="130.00" font-size="14" text-anchor="middle" fill="#111">ACC</text><text x="1015.50" y="130.00" font-size="14" text-anchor="middle" fill="#111">ACC</text><text x="1064.50" y="130.00" font-size="14" text-anchor="middle" fill="#111">ADD</text>
  <line x1="60.00" y1="200" x2="60.00" y2="208" stroke="#999"/><text x="60.00" y="255" font-size="10" text-anchor="middle">0</text><line x1="109.00" y1="200" x2="109.00" y2="208" stroke="#999"/><text x="109.00" y="255" font-size="10" text-anchor="middle">1</text><line x1="158.00" y1="200" x2="158.00" y2="208" stroke="#999"/><text x="158.00" y="255" font-size="10" text-anchor="middle">2</text><line x1="207.00" y1="200" x2="207.00" y2="208" stroke="#999"/><text x="207.00" y="255" font-size="10" text-anchor="middle">3</text><line x1="256.00" y1="200" x2="256.00" y2="208" stroke="#999"/><text x="256.00" y="255" font-size="10" text-anchor="middle">4</text><line x1="305.00" y1="200" x2="305.00" y2="208" stroke="#999"/><text x="305.00" y="255" font-size="10" text-anchor="middle">5</text><line x1="354.00" y1="200" x2="354.00" y2="208" stroke="#999"/><text x="354.00" y="255" font-size="10" text-anchor="middle">6</text><line x1="403.00" y1="200" x2="403.00" y2="208" stroke="#999"/><text x="403.00" y="255" font-size="10" text-anchor="middle">7</text><line x1="452.00" y1="200" x2="452.00" y2="208" stroke="#999"/><text x="452.00" y="255" font-size="10" text-anchor="middle">8</text><line x1="501.00" y1="200" x2="501.00" y2="208" stroke="#999"/><text x="501.00" y="255" font-size="10" text-anchor="middle">9</text><line x1="550.00" y1="200" x2="550.00" y2="208" stroke="#999"/><text x="550.00" y="255" font-size="10" text-anchor="middle">10</text><line x1="599.00" y1="200" x2="599.00" y2="208" stroke="#999"/><text x="599.00" y="255" font-size="10" text-anchor="middle">11</text><line x1="648.00" y1="200" x2="648.00" y2="208" stroke="#999"/><text x="648.00" y="255" font-size="10" text-anchor="middle">12</text><line x1="697.00" y1="200" x2="697.00" y2="208" stroke="#999"/><text x="697.00" y="255" font-size="10" text-anchor="middle">13</text><line x1="746.00" y1="200" x2="746.00" y2="208" stroke="#999"/><text x="746.00" y="255" font-size="10" text-anchor="middle">14</text><line x1="795.00" y1="200" x2="795.00" y2="208" stroke="#999"/><text x="795.00" y="255" font-size="10" text-anchor="middle">15</text><line x1="844.00" y1="200" x2="844.00" y2="208" stroke="#999"/><text x="844.00" y="255" font-size="10" text-anchor="middle">16</text><line x1="893.00" y1="200" x2="893.00" y2="208" stroke="#999"/><text x="893.00" y="255" font-size="10" text-anchor="middle">17</text><line x1="942.00" y1="200" x2="942.00" y2="208" stroke="#999"/><text x="942.00" y="255" font-size="10" text-anchor="middle">18</text><line x1="991.00" y1="200" x2="991.00" y2="208" stroke="#999"/><text x="991.00" y="255" font-size="10" text-anchor="middle">19</text><line x1="1040.00" y1="200" x2="1040.00" y2="208" stroke="#999"/><text x="1040.00" y="255" font-size="10" text-anchor="middle">20</text>
  <rect x="60" y="25" width="22" height="12" fill="#1f77b4" opacity="0.6" stroke="#444" stroke-width="0.5"/><text x="88" y="36" font-size="12">ADD</text><rect x="170" y="25" width="22" height="12" fill="#ff7f0e" opacity="0.6" stroke="#444" stroke-width="0.5"/><text x="198" y="36" font-size="12">LOADI</text><rect x="280" y="25" width="22" height="12" fill="#2ca02c" opacity="0.6" stroke="#444" stroke-width="0.5"/><text x="308" y="36" font-size="12">LOADHI</text><rect x="390" y="25" width="22" height="12" fill="#d62728" opacity="0.6" stroke="#444" stroke-width="0.5"/><text x="418" y="36" font-size="12">MAC4</text><rect x="500" y="25" width="22" height="12" fill="#9467bd" opacity="0.6" stroke="#444" stroke-width="0.5"/><text x="528" y="36" font-size="12">CONV3</text><rect x="610" y="25" width="22" height="12" fill="#8c564b" opacity="0.6" stroke="#444" stroke-width="0.5"/><text x="638" y="36" font-size="12">SIGMOID</text><rect x="720" y="25" width="22" height="12" fill="#e377c2" opacity="0.6" stroke="#444" stroke-width="0.5"/><text x="748" y="36" font-size="12">ACC</text>
  <text x="550.0" y="42" font-size="20" text-anchor="middle">Opcode Timeline</text>
</svg>
