<svg xmlns="http://www.w3.org/2000/svg" width="1100" height="660" viewBox="0 0 1100 660">
<g>
  <rect x="60" y="60" width="980" height="100" fill="#fafafa" stroke="#cccccc" stroke-width="1"/>
  <line x1="60" y1="85.00" x2="1040" y2="85.00" stroke="#e5e5e5" stroke-dasharray="4 4"/><line x1="60" y1="110.00" x2="1040" y2="110.00" stroke="#e5e5e5" stroke-dasharray="4 4"/><line x1="60" y1="135.00" x2="1040" y2="135.00" stroke="#e5e5e5" stroke-dasharray="4 4"/>
  <line x1="256.00" y1="60" x2="256.00" y2="160" stroke="#bbbbbb" stroke-dasharray="3 4"/><text x="256.00" y="50" font-size="12" text-anchor="middle" fill="#666">MAC4</text><line x1="599.00" y1="60" x2="599.00" y2="160" stroke="#bbbbbb" stroke-dasharray="3 4"/><text x="599.00" y="50" font-size="12" text-anchor="middle" fill="#666">CONV3</text><line x1="697.00" y1="60" x2="697.00" y2="160" stroke="#bbbbbb" stroke-dasharray="3 4"/><text x="697.00" y="50" font-size="12" text-anchor="middle" fill="#666">SIG</text><line x1="844.00" y1="60" x2="844.00" y2="160" stroke="#bbbbbb" stroke-dasharray="3 4"/><text x="844.00" y="50" font-size="12" text-anchor="middle" fill="#666">SIG</text><line x1="893.00" y1="60" x2="893.00" y2="160" stroke="#bbbbbb" stroke-dasharray="3 4"/><text x="893.00" y="50" font-size="12" text-anchor="middle" fill="#666">ACC</text><line x1="942.00" y1="60" x2="942.00" y2="160" stroke="#bbbbbb" stroke-dasharray="3 4"/><text x="942.00" y="50" font-size="12" text-anchor="middle" fill="#666">ACC</text><line x1="991.00" y1="60" x2="991.00" y2="160" stroke="#bbbbbb" stroke-dasharray="3 4"/><text x="991.00" y="50" font-size="12" text-anchor="middle" fill="#666">ACC</text>
  <polyline fill="none" stroke="#1f77b4" stroke-width="3" points="60.00,160.00 109.00,155.00 158.00,150.00 207.00,145.00 256.00,140.00 305.00,135.00 354.00,130.00 403.00,125.00 452.00,120.00 501.00,115.00 550.00,110.00 599.00,105.00 648.00,100.00 697.00,95.00 746.00,90.00 795.00,85.00 844.00,80.00 893.00,75.00 942.00,70.00 991.00,65.00 1040.00,60.00"/>
  <text x="60" y="25" font-size="18" fill="#333">Program Counter (range 0..80)</text>
</g>
<g>
  <rect x="60" y="280" width="980" height="100" fill="#fafafa" stroke="#cccccc" stroke-width="1"/>
  <line x1="60" y1="305.00" x2="1040" y2="305.00" stroke="#e5e5e5" stroke-dasharray="4 4"/><line x1="60" y1="330.00" x2="1040" y2="330.00" stroke="#e5e5e5" stroke-dasharray="4 4"/><line x1="60" y1="355.00" x2="1040" y2="355.00" stroke="#e5e5e5" stroke-dasharray="4 4"/>
  <line x1="256.00" y1="280" x2="256.00" y2="380" stroke="#bbbbbb" stroke-dasharray="3 4"/><text x="256.00" y="270" font-size="12" text-anchor="middle" fill="#666">MAC4</text><line x1="599.00" y1="280" x2="599.00" y2="380" stroke="#bbbbbb" stroke-dasharray="3 4"/><text x="599.00" y="270" font-size="12" text-anchor="middle" fill="#666">CONV3</text><line x1="697.00" y1="280" x2="697.00" y2="380" stroke="#bbbbbb" stroke-dasharray="3 4"/><text x="697.00" y="270" font-size="12" text-anchor="middle" fill="#666">SIG</text><line x1="844.00" y1="280" x2="844.00" y2="380" stroke="#bbbbbb" stroke-dasharray="3 4"/><text x="844.00" y="270" font-size="12" text-anchor="middle" fill="#666">SIG</text><line x1="893.00" y1="280" x2="893.00" y2="380" stroke="#bbbbbb" stroke-dasharray="3 4"/><text x="893.00" y="270" font-size="12" text-anchor="middle" fill="#666">ACC</text><line x1="942.00" y1="280" x2="942.00" y2="380" stroke="#bbbbbb" stroke-dasharray="3 4"/><text x="942.00" y="270" font-size="12" text-anchor="middle" fill="#666">ACC</text><line x1="991.00" y1="280" x2="991.00" y2="380" stroke="#bbbbbb" stroke-dasharray="3 4"/><text x="991.00" y="270" font-size="12" text-anchor="middle" fill="#666">ACC</text>
  <polyline fill="none" stroke="#ff7f0e" stroke-width="3" points="60.00,380.00 109.00,380.00 158.00,380.00 207.00,380.00 256.00,380.00 305.00,380.00 354.00,280.00 403.00,380.00 452.00,380.00 501.00,380.00 550.00,380.00 599.00,380.00 648.00,380.00 697.00,380.00 746.00,380.00 795.00,380.00 844.00,380.00 893.00,380.00 942.00,380.00 991.00,380.00 1040.00,380.00"/>
  <text x="60" y="245" font-size="18" fill="#333">ALU Result (range -3..201589764)</text>
</g>
<g>
  <rect x="60" y="500" width="980" height="100" fill="#fafafa" stroke="#cccccc" stroke-width="1"/>
  <line x1="60" y1="525.00" x2="1040" y2="525.00" stroke="#e5e5e5" stroke-dasharray="4 4"/><line x1="60" y1="550.00" x2="1040" y2="550.00" stroke="#e5e5e5" stroke-dasharray="4 4"/><line x1="60" y1="575.00" x2="1040" y2="575.00" stroke="#e5e5e5" stroke-dasharray="4 4"/>
  <line x1="256.00" y1="500" x2="256.00" y2="600" stroke="#bbbbbb" stroke-dasharray="3 4"/><text x="256.00" y="490" font-size="12" text-anchor="middle" fill="#666">MAC4</text><line x1="599.00" y1="500" x2="599.00" y2="600" stroke="#bbbbbb" stroke-dasharray="3 4"/><text x="599.00" y="490" font-size="12" text-anchor="middle" fill="#666">CONV3</text><line x1="697.00" y1="500" x2="697.00" y2="600" stroke="#bbbbbb" stroke-dasharray="3 4"/><text x="697.00" y="490" font-size="12" text-anchor="middle" fill="#666">SIG</text><line x1="844.00" y1="500" x2="844.00" y2="600" stroke="#bbbbbb" stroke-dasharray="3 4"/><text x="844.00" y="490" font-size="12" text-anchor="middle" fill="#666">SIG</text><line x1="893.00" y1="500" x2="893.00" y2="600" stroke="#bbbbbb" stroke-dasharray="3 4"/><text x="893.00" y="490" font-size="12" text-anchor="middle" fill="#666">ACC</text><line x1="942.00" y1="500" x2="942.00" y2="600" stroke="#bbbbbb" stroke-dasharray="3 4"/><text x="942.00" y="490" font-size="12" text-anchor="middle" fill="#666">ACC</text><line x1="991.00" y1="500" x2="991.00" y2="600" stroke="#bbbbbb" stroke-dasharray="3 4"/><text x="991.00" y="490" font-size="12" text-anchor="middle" fill="#666">ACC</text>
  <polyline fill="none" stroke="#2ca02c" stroke-width="3" points="60.00,600.00 109.00,600.00 158.00,600.00 207.00,600.00 256.00,600.00 305.00,600.00 354.00,600.00 403.00,600.00 452.00,600.00 501.00,600.00 550.00,600.00 599.00,600.00 648.00,600.00 697.00,600.00 746.00,600.00 795.00,600.00 844.00,600.00 893.00,600.00 942.00,564.10 991.00,565.64 1040.00,500.00"/>
  <text x="60" y="465" font-size="18" fill="#333">Accumulator (range 0..195)</text>
</g>
</svg>
